<?xml version="1.0" standalone="no"?>
<!DOCTYPE svg PUBLIC "-//W3C//DTD SVG 20010904//EN"
 "http://www.w3.org/TR/2001/REC-SVG-20010904/DTD/svg10.dtd">
<svg version="1.0" xmlns="http://www.w3.org/2000/svg" viewBox="0 0 350.000000 483.000000"
 preserveAspectRatio="xMidYMid meet" >
<metadata>
Created by potrace 1.16, written by Peter Selinger 2001-2019
</metadata>
<g transform="translate(0.000000,483.000000) scale(0.120000,-0.109000)"
fill="#efd9faff" stroke="none">
<path d="M1650 4389 c-242 -27 -497 -121 -713 -264 -130 -85 -167 -121 -167
-160 0 -36 12 -50 50 -60 20 -5 44 8 125 65 402 287 857 368 1320 235 124 -36
330 -139 450 -224 110 -79 134 -85 169 -38 19 26 19 30 6 54 -24 43 -196 159
-335 227 -295 145 -594 200 -905 165z"/>
<path d="M1658 3664 c-128 -23 -262 -80 -374 -160 -65 -46 -83 -78 -64 -115 6
-11 23 -24 37 -30 22 -8 34 -5 72 20 200 131 363 180 553 168 157 -10 285 -53
416 -141 37 -25 78 -46 89 -46 24 0 63 43 63 70 0 40 -152 140 -288 190 -158
58 -341 74 -504 44z"/>
<path d="M1065 2779 c-73 -17 -163 -48 -207 -70 -225 -113 -397 -324 -458
-563 -15 -59 -20 -111 -20 -208 0 -160 21 -252 90 -393 57 -116 42 -98 569
-660 499 -532 503 -535 584 -575 62 -30 79 -34 175 -38 91 -3 117 -1 171 17
127 43 144 60 677 626 93 99 230 245 304 324 74 79 155 171 179 204 181 256
203 606 54 888 -108 206 -277 350 -493 421 -82 26 -114 31 -233 35 -118 5
-151 2 -233 -17 -110 -25 -227 -81 -322 -152 -75 -57 -57 -60 -179 23 -163
110 -293 150 -492 148 -69 -1 -144 -5 -166 -10z"/>
</g>
</svg>